<svg width="518" height="473" xmlns="http://www.w3.org/2000/svg" version="1.1" xml:space="preserve">
 <g>
  <title>Layer 1</title>
  <g id="svg_2">
   <g id="svg_3">
    <path d="m408.333,226.333l0,-32c0,-67.512 -45.066,-124.63 -106.667,-143.043l0,-6.29c0,-23.531 -19.146,-42.667 -42.667,-42.667s-42.666,19.136 -42.666,42.667l0,6.29c-61.599,18.413 -106.667,75.531 -106.667,143.043l0,32c0,71.01 -16.708,95.958 -28.917,114.177c-7.061,10.553 -13.749,20.521 -13.749,35.157c0,34.775 72.495,46.978 131.271,51.181c8.241,26.383 32.432,44.819 60.729,44.819s52.488,-18.436 60.729,-44.819c58.776,-4.203 131.271,-16.407 131.271,-51.181c0,-14.635 -6.688,-24.604 -13.75,-35.156c-12.208,-18.219 -28.917,-43.167 -28.917,-114.178zm-170.666,-181.333c0,-11.76 9.563,-21.333 21.333,-21.333s21.333,9.573 21.333,21.333l0,1.704c-6.987,-1.006 -14.071,-1.704 -21.333,-1.704s-14.346,0.698 -21.333,1.704l0,-1.704zm21.333,405.333c-15.944,0 -29.947,-8.799 -37.221,-22.147c15.114,0.638 28.239,0.814 37.221,0.814c8.983,0 22.107,-0.176 37.223,-0.814c-7.275,13.348 -21.279,22.147 -37.223,22.147zm0,-42.666c-97.688,0 -170.667,-16.896 -170.667,-32c0,-7.802 3.292,-13.063 10.146,-23.281c12.938,-19.334 32.521,-48.553 32.521,-126.053l0,-32c0,-70.583 57.417,-128 128,-128s128,57.417 128,128l0,32c0,77.5 19.583,106.719 32.521,126.052c6.854,10.219 10.146,15.479 10.146,23.281c0,15.105 -72.979,32.001 -170.667,32.001z" id="svg_4" stroke-dasharray="5,2,2,2,2,2" fill="#ffffff"/>
    <path d="m502.292,159.458c-1.875,-5.604 -7.875,-8.604 -13.5,-6.74c-5.583,1.865 -8.604,7.906 -6.75,13.49c7.708,23.094 11.625,46.906 11.625,70.792s-3.917,47.698 -11.625,70.792c-1.854,5.583 1.167,11.625 6.75,13.49c1.125,0.375 2.25,0.552 3.375,0.552c4.458,0 8.625,-2.823 10.125,-7.292c8.437,-25.261 12.708,-51.354 12.708,-77.542s-4.271,-52.281 -12.708,-77.542z" id="svg_5" stroke-dasharray="5,2,2,2,2,2" fill="#ffffff"/>
    <path d="m448.354,166.188c-5.583,1.865 -8.604,7.906 -6.75,13.49c6.229,18.728 9.396,38.01 9.396,57.322s-3.167,38.594 -9.396,57.323c-1.854,5.583 1.167,11.625 6.75,13.49c1.125,0.365 2.25,0.542 3.375,0.542c4.479,0 8.625,-2.823 10.125,-7.302c6.958,-20.896 10.479,-42.448 10.479,-64.052s-3.521,-43.156 -10.479,-64.052c-1.875,-5.605 -7.875,-8.553 -13.5,-6.761z" id="svg_6" stroke-dasharray="5,2,2,2,2,2" fill="#ffffff"/>
    <path d="m24.333,237c0,-23.865 3.896,-47.688 11.604,-70.792c1.854,-5.594 -1.167,-11.635 -6.75,-13.5c-5.583,-1.792 -11.625,1.167 -13.5,6.75c-8.416,25.292 -12.687,51.386 -12.687,77.542c0,26.188 4.271,52.281 12.708,77.542c1.5,4.469 5.667,7.292 10.125,7.292c1.125,0 2.25,-0.177 3.375,-0.552c5.583,-1.865 8.604,-7.906 6.75,-13.49c-7.708,-23.094 -11.625,-46.907 -11.625,-70.792z" id="svg_7" stroke-dasharray="5,2,2,2,2,2" fill="#ffffff"/>
    <path d="m76.396,294.323c-6.229,-18.729 -9.396,-38.01 -9.396,-57.323s3.167,-38.594 9.396,-57.323c1.854,-5.583 -1.167,-11.625 -6.75,-13.49c-5.646,-1.802 -11.625,1.156 -13.5,6.76c-6.958,20.897 -10.479,42.449 -10.479,64.053s3.521,43.156 10.479,64.052c1.5,4.479 5.646,7.302 10.125,7.302c1.125,0 2.25,-0.177 3.375,-0.542c5.583,-1.864 8.604,-7.906 6.75,-13.489z" id="svg_8" stroke-dasharray="5,2,2,2,2,2" fill="#ffffff"/>
   </g>
  </g>
  <g id="svg_9"/>
  <g id="svg_10"/>
  <g id="svg_11"/>
  <g id="svg_12"/>
  <g id="svg_13"/>
  <g id="svg_14"/>
  <g id="svg_15"/>
  <g id="svg_16"/>
  <g id="svg_17"/>
  <g id="svg_18"/>
  <g id="svg_19"/>
  <g id="svg_20"/>
  <g id="svg_21"/>
  <g id="svg_22"/>
  <g id="svg_23"/>
 </g>

</svg>